<svg width="21" height="20" viewBox="0 0 21 20" fill="none" xmlns="http://www.w3.org/2000/svg">
<path d="M11.1229 14H10.1284V10H9.13387M10.1284 6H10.1383M19.079 10C19.079 11.1819 18.8475 12.3522 18.3977 13.4442C17.9479 14.5361 17.2886 15.5282 16.4575 16.364C15.6263 17.1997 14.6396 17.8626 13.5537 18.3149C12.4677 18.7672 11.3038 19 10.1284 19C8.95297 19 7.78907 18.7672 6.70312 18.3149C5.61718 17.8626 4.63047 17.1997 3.79932 16.364C2.96818 15.5282 2.30888 14.5361 1.85906 13.4442C1.40925 12.3522 1.17773 11.1819 1.17773 10C1.17773 7.61305 2.12075 5.32387 3.79932 3.63604C5.47789 1.94821 7.75453 1 10.1284 1C12.5023 1 14.7789 1.94821 16.4575 3.63604C18.136 5.32387 19.079 7.61305 19.079 10Z" stroke="#374151" stroke-width="2" stroke-linecap="round" stroke-linejoin="round"/>
</svg>
